2.8Hzhigh3min_grf.mot
version=1
nRows=10
nColumns 19
inDegrees=yes
endheader
time	1_ground_force_vx	1_ground_force_vy	1_ground_force_vz	1_ground_force_px	1_ground_force_py	1_ground_force_pz	1_ground_torque_x	1_ground_torque_y	1_ground_torque_z	2_ground_force_vx	2_ground_force_vy	2_ground_force_vz	2_ground_force_px	2_ground_force_py	2_ground_force_pz	2_ground_torque_x	2_ground_torque_y	2_ground_torque_z
            1.253500	            6.289269	          374.978801	           -4.231754	           -0.198622	            0.006367	           -0.437471	            0.004918	            0.293237	           -0.003309	            0.960682	          187.846584	           -1.958471	           -0.194503	            0.005630	           -0.655166	           -0.000264	           -0.051582	            0.000538
            1.254000	            6.382838	          369.028706	           -3.936497	           -0.198354	            0.006366	           -0.437270	            0.005187	            0.299890	           -0.003199	            1.447893	          182.691286	           -1.742427	           -0.194271	            0.005628	           -0.654558	           -0.001391	           -0.175474	            0.001674
            1.254500	            6.613268	          363.620387	           -3.868543	           -0.198680	            0.006365	           -0.436968	            0.006940	            0.381589	           -0.004060	            1.504651	          179.929724	           -1.893087	           -0.194848	            0.005631	           -0.655989	           -0.002019	           -0.241390	            0.002540
            1.255000	            6.522230	          356.951492	           -4.126195	           -0.198675	            0.006367	           -0.437504	            0.005741	            0.314220	           -0.003632	            1.563505	          176.614904	           -1.811078	           -0.194888	            0.005633	           -0.656586	           -0.001581	           -0.178619	            0.001832
            1.255500	            6.752873	          351.002210	           -4.014704	           -0.198541	            0.006367	           -0.437372	            0.005132	            0.266729	           -0.003051	            1.388630	          173.116239	           -2.058123	           -0.194781	            0.005634	           -0.656581	           -0.000784	           -0.097766	            0.001162
            1.256000	            6.800158	          345.593462	           -3.854583	           -0.198590	            0.006367	           -0.437434	            0.003915	            0.198988	           -0.002219	            1.547810	          167.960426	           -2.029652	           -0.194524	            0.005629	           -0.654944	           -0.000456	           -0.049476	            0.000598
            1.256500	            6.801340	          340.365334	           -3.785287	           -0.198717	            0.006366	           -0.437189	            0.003651	            0.182689	           -0.002032	            1.467259	          164.278293	           -2.371250	           -0.195282	            0.005626	           -0.655050	           -0.000128	           -0.014293	            0.000206
            1.257000	            6.711342	          334.235300	           -3.582061	           -0.198765	            0.006366	           -0.437183	            0.004054	            0.201905	           -0.002164	            1.296475	          159.673915	           -2.387597	           -0.194225	            0.005629	           -0.654729	           -0.000719	           -0.088532	            0.001324
            1.257500	            6.941952	          328.466253	           -3.469797	           -0.198754	            0.006367	           -0.437502	            0.005101	            0.241346	           -0.002549	            1.682655	          156.544085	           -2.211214	           -0.194437	            0.005628	           -0.654519	           -0.001798	           -0.167270	            0.002363
            1.258000	            6.897438	          323.057684	           -3.355304	           -0.198587	            0.006367	           -0.437518	            0.004470	            0.209351	           -0.002174	            1.458374	          153.781007	           -2.220970	           -0.194865	            0.005631	           -0.655821	           -0.001780	           -0.187666	            0.002710
